# Blender 4.4.3
# www.blender.org
mtllib tundra_sapling_2.mtl
o Plane.001
v 0.500000 1.000000 1.000000
v 0.500000 0.000000 1.000000
v 0.500000 1.000000 0.000000
v 0.500000 0.000000 0.000000
v 0.000000 0.000000 0.500000
v 1.000000 0.000000 0.500000
v 0.000000 1.000000 0.500000
v 1.000000 1.000000 0.500000
vn 1.0000 -0.0000 -0.0000
vn -0.0000 -0.0000 1.0000
vt 0.598958 0.900000
vt 0.598958 0.800000
vt 0.648958 0.800000
vt 0.648958 0.900000
s 0
usemtl block_uv
f 1/1/1 2/2/1 4/3/1 3/4/1
f 5/2/2 6/3/2 8/4/2 7/1/2
